<svg width="280" height="60" viewBox="0 0 280 60" xmlns="http://www.w3.org/2000/svg">
  <path d="M18 13c0-5 4-9 10-9h14c6 0 10 4 10 9v10c0 5-4 9-10 9h-10l-7 5 3-5c-6 0-10-4-10-9z" fill="#1e3a8a"/>
  <path d="M35 7c0-3 2-5 6-5h9c4 0 6 2 6 5v7c0 3-2 5-6 5h-5l-3 3 2-3c-4 0-6-2-6-5z" fill="#1e40af"/>
  <circle cx="25" cy="17" r="1.5" fill="#60a5fa"/>
  <circle cx="31" cy="17" r="1.5" fill="#60a5fa"/>
  <circle cx="37" cy="17" r="1.5" fill="#60a5fa"/>
  <circle cx="43" cy="10" r="1" fill="#93c5fd"/>
  <circle cx="47" cy="10" r="1" fill="#93c5fd"/>
  <circle cx="25" cy="45" r="2" fill="#3b82f6"/>
  <circle cx="45" cy="45" r="2" fill="#3b82f6"/>
  <circle cx="35" cy="48" r="2" fill="#60a5fa"/>
  <line x1="27" y1="45" x2="33" y2="47" stroke="#3b82f6" stroke-width="1.5"/>
  <line x1="37" y1="47" x2="43" y2="45" stroke="#3b82f6" stroke-width="1.5"/>
  <text x="70" y="25" font-family="Arial,sans-serif" font-size="20" font-weight="bold" fill="#1e3a8a">Leib<tspan fill="#1e40af">ROOMS</tspan></text>
  <text x="70" y="42" font-family="Arial,sans-serif" font-size="12" fill="#3b82f6">Lite</text>
  <line x1="70" y1="47" x2="210" y2="47" stroke="#60a5fa" opacity="0.6"/>
  <circle cx="255" cy="30" r="8" fill="none" stroke="#1e40af" stroke-width="2"/>
  <circle cx="255" cy="30" r="2" fill="#3b82f6"/>
  <line x1="255" y1="30" x2="255" y2="24" stroke="#1e40af" stroke-width="1.5"/>
  <line x1="255" y1="30" x2="259" y2="30" stroke="#1e40af" stroke-width="1.5"/>
  <circle cx="255" cy="30" r="12" fill="none" stroke="#60a5fa" opacity="0.3">
    <animate attributeName="r" values="8;16;8" dur="2s" repeatCount="indefinite"/>
    <animate attributeName="opacity" values="0.6;0;0.6" dur="2s" repeatCount="indefinite"/>
  </circle>
</svg>